<svg id="Layer_1" data-name="Layer 1" xmlns="http://www.w3.org/2000/svg" viewBox="0 0 141.75 30"><defs><style>.cls-1{fill:#ff1949;}.cls-2,.cls-3,.cls-4{fill:#f2f2f2;}.cls-2{fill-rule:evenodd;}.cls-4{font-size:11.59px;font-family:Roboto-Black, Roboto;font-weight:800;}.cls-5{letter-spacing:0.01em;}.cls-6{letter-spacing:0em;}.cls-7{fill:none;stroke:#f2f2f2;stroke-miterlimit:10;}</style></defs><title>WhatsAppButtonWhiteMedium2</title><path class="cls-1" d="M360,283.28H489.75a6,6,0,0,1,6,6v18a6,6,0,0,1-6,6H360a6,6,0,0,1-6-6v-18a6,6,0,0,1,6-6Zm0,0" transform="translate(-354 -283.28)"/><path class="cls-2" d="M369.81,290a8.52,8.52,0,0,1,.19,17h-.24a8.38,8.38,0,0,1-3.69-.84l-4.46,1h0a.06.06,0,0,1-.06-.08l.75-4.51a8.62,8.62,0,0,1-1-3.85,8.52,8.52,0,0,1,8.53-8.76Zm-.05,1.47h-.2a7.06,7.06,0,0,0-5.88,10.61l.13.22-.56,3.06,3-.72.22.12a7.06,7.06,0,0,0,3.25.79h.2a7,7,0,0,0-.2-14.09Zm-2.94,2.93.41,0c.15,0,.32,0,.47.39s.55,1.5.6,1.6a.37.37,0,0,1,0,.38,1.29,1.29,0,0,1-.22.35l-.34.37a.3.3,0,0,0-.1.43,6.42,6.42,0,0,0,1.14,1.52,5.56,5.56,0,0,0,1.69,1.12.56.56,0,0,0,.23.06.3.3,0,0,0,.23-.11c.14-.13.54-.6.71-.81a.3.3,0,0,1,.25-.16.71.71,0,0,1,.23.06c.19.08,1.23.63,1.44.74s.35.18.4.27a1.79,1.79,0,0,1-.15,1,2.19,2.19,0,0,1-1.48,1l-.37,0a5.73,5.73,0,0,1-2.18-.63,8.73,8.73,0,0,1-3.55-3.35,4.15,4.15,0,0,1-.81-2.24,2.37,2.37,0,0,1,.81-1.76.77.77,0,0,1,.56-.25Zm0,0" transform="translate(-354 -283.28)"/><path class="cls-3" d="M450.66,302.59l1.72-8.54H451L450,299.93h0l-1.09-5.88h-1.32l-1.11,5.81h0l-1-5.81H444l1.69,8.54h1.43l1.06-5.82h0l1.08,5.82Zm2.23-8.54v8.54h1.27v-3.24a3,3,0,0,1,.23-1.36.8.8,0,0,1,.75-.41.64.64,0,0,1,.64.38,2.67,2.67,0,0,1,.18,1.13v3.5h1.27v-3.81a6.56,6.56,0,0,0-.08-1,2.22,2.22,0,0,0-.26-.8,1.28,1.28,0,0,0-.52-.51,1.57,1.57,0,0,0-.83-.19,1.31,1.31,0,0,0-.74.25,1.68,1.68,0,0,0-.61.77h0v-3.21Zm5.25,4.26a2.59,2.59,0,0,1,.22-1,1.86,1.86,0,0,1,1.19-1,2.86,2.86,0,0,1,.77-.1,3.49,3.49,0,0,1,.71.07,1.72,1.72,0,0,1,.65.25,1.49,1.49,0,0,1,.48.54,1.76,1.76,0,0,1,.19.89v3.22c0,.28,0,.55,0,.8a2,2,0,0,0,.13.58h-1.29c0-.1,0-.19-.06-.29l0-.31a1.62,1.62,0,0,1-.71.58,2.12,2.12,0,0,1-.85.17,1.74,1.74,0,0,1-.61-.1,1.47,1.47,0,0,1-.51-.34,1.71,1.71,0,0,1-.34-.58,2.81,2.81,0,0,1-.11-.82,2.32,2.32,0,0,1,.13-.86,1.64,1.64,0,0,1,.36-.55,1.36,1.36,0,0,1,.5-.3,3.86,3.86,0,0,1,.58-.17l.56-.1a2.23,2.23,0,0,0,.49-.1.85.85,0,0,0,.34-.2.58.58,0,0,0,.12-.41,1.2,1.2,0,0,0-.07-.43.54.54,0,0,0-.18-.25.42.42,0,0,0-.26-.12,1.55,1.55,0,0,0-.32,0,.82.82,0,0,0-.59.21,1.21,1.21,0,0,0-.25.73Zm2.94,1.25a.58.58,0,0,1-.21.16l-.26.08a2.3,2.3,0,0,1-.28.06l-.31.06a1.52,1.52,0,0,0-.28.09,1,1,0,0,0-.25.17.89.89,0,0,0-.16.25,1.16,1.16,0,0,0-.06.4,1,1,0,0,0,.06.38.65.65,0,0,0,.17.25.58.58,0,0,0,.25.12,1,1,0,0,0,.3,0,.91.91,0,0,0,.58-.17,1.05,1.05,0,0,0,.31-.39,1.67,1.67,0,0,0,.11-.48,3.28,3.28,0,0,0,0-.39ZM465,296.4v-1.85h-1.27v1.85h-.77v1.14h.77v3.65a2,2,0,0,0,.11.75,1,1,0,0,0,.32.44,1,1,0,0,0,.46.21,2.6,2.6,0,0,0,.56.06h.39l.36-.05v-1.32l-.19,0h-.21a.54.54,0,0,1-.43-.14,1.1,1.1,0,0,1-.1-.58v-3.06h.93V296.4Zm2.52,4.18h-1.21a2.83,2.83,0,0,0,.2,1,2.13,2.13,0,0,0,.5.66,1.9,1.9,0,0,0,.69.36,2.9,2.9,0,0,0,.79.1,2.84,2.84,0,0,0,.76-.1,1.76,1.76,0,0,0,.68-.35,1.82,1.82,0,0,0,.48-.66,2.59,2.59,0,0,0,.19-1,1.8,1.8,0,0,0-.13-.71,1.37,1.37,0,0,0-.33-.5,1.75,1.75,0,0,0-.48-.32,3.39,3.39,0,0,0-.53-.2l-.53-.16-.47-.15a1.15,1.15,0,0,1-.32-.25.52.52,0,0,1-.12-.36.51.51,0,0,1,.07-.3.49.49,0,0,1,.17-.18.63.63,0,0,1,.23-.08l.23,0a1,1,0,0,1,.59.18.79.79,0,0,1,.28.66h1.21a2.46,2.46,0,0,0-.22-.95,1.79,1.79,0,0,0-.46-.61,1.75,1.75,0,0,0-.64-.32,2.84,2.84,0,0,0-.72-.09,3,3,0,0,0-.73.09,1.7,1.7,0,0,0-.65.31,1.5,1.5,0,0,0-.46.6,2.33,2.33,0,0,0-.17,1,1.86,1.86,0,0,0,.12.7,1.54,1.54,0,0,0,.33.46,2.09,2.09,0,0,0,.47.3l.54.19a5.78,5.78,0,0,1,1.06.39.6.6,0,0,1,.38.57.74.74,0,0,1-.08.38.68.68,0,0,1-.2.24.84.84,0,0,1-.27.13,1,1,0,0,1-.28,0,1.09,1.09,0,0,1-.36-.06.87.87,0,0,1-.31-.18,1.07,1.07,0,0,1-.22-.32,1.21,1.21,0,0,1-.08-.48Zm5.57-1.29.83-3.14h0l.8,3.14Zm.13-5.24-2.42,8.54h1.42l.5-1.9h2.39l.48,1.9H477l-2.39-8.54Zm6.58,7.42a.85.85,0,0,1-.52-.16,1.47,1.47,0,0,1-.35-.43,2.84,2.84,0,0,1-.18-.64,4.4,4.4,0,0,1-.06-.73,4.52,4.52,0,0,1,.06-.74,2.22,2.22,0,0,1,.18-.63,1.18,1.18,0,0,1,.34-.44.79.79,0,0,1,.52-.19.77.77,0,0,1,.52.19,1.12,1.12,0,0,1,.34.45,1.94,1.94,0,0,1,.19.63,4.51,4.51,0,0,1,.07.73,4.4,4.4,0,0,1-.06.73,2.08,2.08,0,0,1-.19.64,1.18,1.18,0,0,1-.34.43.79.79,0,0,1-.52.16Zm-2.33-5.07v8.35h1.27v-2.93h0a1.78,1.78,0,0,0,.59.7,1.47,1.47,0,0,0,.79.22,1.55,1.55,0,0,0,.89-.26,2,2,0,0,0,.63-.71,3.13,3.13,0,0,0,.39-1,5.88,5.88,0,0,0,.12-1.2,6.24,6.24,0,0,0-.12-1.25,3.3,3.3,0,0,0-.39-1.07,2.09,2.09,0,0,0-.65-.73,1.6,1.6,0,0,0-.94-.27,1.47,1.47,0,0,0-.79.22,1.77,1.77,0,0,0-.59.73h0v-.79Zm7.81,5.07a.81.81,0,0,1-.52-.16,1.47,1.47,0,0,1-.35-.43,2.83,2.83,0,0,1-.19-.64,4.4,4.4,0,0,1-.05-.73,4.53,4.53,0,0,1,.05-.74,2.61,2.61,0,0,1,.18-.63,1.18,1.18,0,0,1,.34-.44.8.8,0,0,1,.53-.19.76.76,0,0,1,.51.19,1.24,1.24,0,0,1,.35.45,1.94,1.94,0,0,1,.18.63,3.61,3.61,0,0,1,.07.73,4.4,4.4,0,0,1-.06.73,2.08,2.08,0,0,1-.19.64,1.18,1.18,0,0,1-.34.43.76.76,0,0,1-.51.16Zm-2.34-5.07v8.35h1.27v-2.93h0a1.78,1.78,0,0,0,.59.7,1.51,1.51,0,0,0,.8.22,1.52,1.52,0,0,0,.88-.26,2.1,2.1,0,0,0,.64-.71,3.37,3.37,0,0,0,.38-1,5.25,5.25,0,0,0,.13-1.2,5.57,5.57,0,0,0-.13-1.25,3.55,3.55,0,0,0-.38-1.07,2.12,2.12,0,0,0-.66-.73,1.6,1.6,0,0,0-.94-.27,1.44,1.44,0,0,0-.78.22,1.63,1.63,0,0,0-.59.73h0v-.79Zm0,0" transform="translate(-354 -283.28)"/><text class="cls-4" transform="translate(28.11 19.47) scale(0.75 1)">FREE TR<tspan class="cls-5" x="44.55" y="0">I</tspan><tspan class="cls-6" x="48.11" y="0">AL </tspan></text><line class="cls-7" x1="76.05" y1="15.12" x2="86.66" y2="15.12"/></svg>